<svg width="88" height="44" viewBox="0 0 88 44" xmlns="http://www.w3.org/2000/svg">
  <defs>
    <linearGradient id="g2" x1="0%" y1="0%" x2="0%" y2="100%">
      <stop offset="0%" stop-color="#0E2A5A"/>
      <stop offset="100%" stop-color="#071838"/>
    </linearGradient>
  </defs>
  <g transform="translate(26,10)" fill="#fff">
    <path d="M17.5 22c-3.8 0-7.5-1.5-10.6-4.4C3.9 14.6 2 10.8 2 7c0-.6.5-1 1-1h5c.6 0 1 .4 1 1 0 1.8.6 3.5 1.7 4.9l1.2 1.5c.3.4.3 1 0 1.4l-1.8 1.8c1.8 1.8 3.9 2.8 6.2 3.1l1.6-1.6c.4-.4 1-.4 1.4 0l1.5 1.2c1.4 1.1 3.1 1.7 4.9 1.7.6 0 1 .4 1 1v5c0 .5-.4 1-1 1-3.8 0-7.6-1.9-10.6-4.9z"/>
  </g>
</svg>
